<svg xmlns="http://www.w3.org/2000/svg" width="130" height="36" viewBox="0 0 130 36" fill="none"><path d="M25.2385 21.0868V0.00878906L35.6942 10.5478L25.2385 21.0868Z" fill="#057DC1"></path><path d="M20.9021 25.4521L35.685 10.5391V25.4521H20.9021Z" fill="#224292"></path><path d="M14.7828 25.4429H35.685L25.2386 35.9819L14.7828 25.4429Z" fill="#7D4298"></path><path d="M10.4557 21.0693L25.2385 35.9733H10.4557V21.0693Z" fill="#A34498"></path><path d="M10.4557 14.895V35.973L0 25.434L10.4557 14.895Z" fill="#EE4035"></path><path d="M14.7923 10.5391L0.00939941 25.4431V10.5391H14.7923Z" fill="#F16624"></path><path d="M20.9122 10.539H0.0100098L10.4564 0L20.9122 10.539Z" fill="#F89E1E"></path><path d="M25.2385 14.9128L10.4557 0.00878906H25.2385V14.9128Z" fill="#2EAAE1"></path><g opacity="0.1"><path opacity="0.1" d="M25.2385 21.0958L35.6942 10.5568L34.3385 9.19775L25.2385 21.0958Z" fill="black"></path><path opacity="0.1" d="M20.8835 25.4699H35.6664V23.5439L20.8835 25.4699Z" fill="black"></path><path opacity="0.1" d="M14.7828 25.4424L25.2386 35.9814L26.585 34.6134L14.7828 25.4424Z" fill="black"></path><path opacity="0.1" d="M10.4557 21.1045L10.465 35.9995H12.2757L10.4557 21.1045Z" fill="black"></path><path opacity="0.1" d="M10.4557 14.9131L0.00927734 25.4521L1.29071 26.7481L10.4557 14.9131Z" fill="black"></path><path opacity="0.1" d="M14.7921 10.5571L0.00927734 10.5751V12.4021L14.7921 10.5571Z" fill="black"></path><path opacity="0.1" d="M20.9116 10.5388L10.4559 0.00878906L9.17444 1.30479L20.9116 10.5388Z" fill="black"></path><path opacity="0.1" d="M25.2479 14.9128V0.00878906H23.3351L25.2479 14.9128Z" fill="black"></path></g><path d="M43.1414 29.3496C43.9585 29.4396 44.7756 29.2056 45.4071 28.6926C45.9364 28.0356 46.1871 27.1986 46.1035 26.3706V4.05957H49.6228V27.1356C49.7528 28.5756 49.2885 30.0156 48.3321 31.1316C47.2828 32.0406 45.8992 32.4996 44.4971 32.4006H43.5221L43.1414 29.3496Z" fill="#231F20"></path><path d="M58.7414 25.8034C57.0514 24.8134 55.6771 23.3734 54.7857 21.6634C53.7921 19.7284 53.3 17.5954 53.3464 15.4354C53.3 13.2844 53.7921 11.1424 54.7857 9.21637C55.6771 7.50637 57.0421 6.06638 58.7321 5.06738C62.2978 3.12338 66.6435 3.12338 70.2092 5.06738C71.9085 6.05738 73.2735 7.49737 74.165 9.21637C75.1585 11.1424 75.6414 13.2844 75.595 15.4354C75.6414 17.5954 75.1585 19.7284 74.165 21.6634C73.2735 23.3734 71.9085 24.8134 70.2092 25.8034C66.6528 27.7564 62.2885 27.7564 58.7414 25.8034ZM68.5285 22.7344C69.6428 21.9964 70.5064 20.9524 71.0264 19.7464C71.6021 18.3784 71.89 16.9114 71.8714 15.4354C71.89 13.9594 71.6021 12.5014 71.0264 11.1334C70.5157 9.91837 69.6428 8.87438 68.5285 8.14538C66.04 6.69638 62.9292 6.69638 60.4407 8.14538C59.3171 8.88338 58.4442 9.91837 57.9242 11.1334C57.33 12.4924 57.0421 13.9594 57.07 15.4354C57.0421 16.9114 57.33 18.3784 57.9242 19.7464C58.4442 20.9614 59.3171 21.9964 60.4407 22.7344C62.9292 24.1834 66.04 24.1834 68.5285 22.7344Z" fill="#231F20"></path><path d="M81.7792 26.7935C80.6278 26.5595 79.5043 26.1995 78.4457 25.7045L78.9285 21.9695C80.1171 22.5455 81.3614 23.0225 82.6428 23.3825C83.8964 23.7515 85.1964 23.9405 86.5057 23.9495C87.6107 24.0125 88.7157 23.7515 89.6721 23.2025C90.4335 22.6895 90.8607 21.8255 90.7957 20.9255C90.8235 20.2595 90.6192 19.6025 90.2014 19.0625C89.7371 18.5225 89.1428 18.0905 88.4742 17.8115C87.4064 17.3435 86.3014 16.9295 85.1871 16.5785C83.9707 16.2005 82.7914 15.7145 81.6585 15.1295C80.7485 14.6435 79.9685 13.9415 79.4021 13.0955C78.7985 12.1415 78.5014 11.0345 78.5478 9.90946C78.4921 8.15446 79.2721 6.47146 80.6557 5.34646C82.3735 4.09546 84.4907 3.48346 86.6357 3.60946C87.9264 3.60946 89.2171 3.75346 90.4707 4.05046C91.6128 4.30246 92.7178 4.67146 93.7857 5.13946L93.3957 8.81146C92.2628 8.21746 91.0742 7.73146 89.8392 7.36246C88.7342 7.04746 87.5921 6.89446 86.4407 6.89446C85.3635 6.83146 84.2864 7.08346 83.3485 7.60546C82.5871 8.08246 82.1507 8.91946 82.2157 9.79246C82.1971 10.3955 82.3828 10.9895 82.7635 11.4665C83.1814 11.9525 83.7014 12.3395 84.2957 12.5915C85.2057 12.9875 86.1342 13.3385 87.0814 13.6265C89.1521 14.1665 91.0835 15.1205 92.755 16.4255C94.0178 17.5595 94.6957 19.1795 94.6121 20.8445C94.6585 22.6175 93.8971 24.3185 92.5321 25.4885C91.1485 26.7035 88.9107 27.2885 85.8371 27.2885C84.4721 27.2705 83.1071 27.0995 81.7792 26.7935Z" fill="#231F20"></path><path d="M98.1406 4.05957H112.199V7.38057H101.688V13.2576H109.943V16.5786H101.688V23.4996H112.496V26.8116H98.1406V4.05957Z" fill="#231F20"></path><path d="M116.201 4.05957H130V7.38057H119.711V13.2576H127.651V16.5786H119.711V26.8116H116.201V4.05957V4.05957Z" fill="#231F20"></path></svg>