<svg xmlns="http://www.w3.org/2000/svg" width="133" height="37" viewBox="0 0 133 37" fill="none"><path d="M26.1442 28.9164C23.9326 30.5622 21.2376 31.4517 18.4678 31.45C14.9877 31.45 11.6503 30.0856 9.18952 27.657C6.72878 25.2284 5.34635 21.9346 5.34635 18.5C5.34635 15.0654 6.72878 11.7716 9.18952 9.34297C11.6503 6.91437 14.9877 5.55 18.4678 5.55C21.2383 5.54979 23.9333 6.44114 26.1442 8.08891L29.7263 3.83567C26.516 1.34931 22.553 -0.00140743 18.4722 1.1005e-06C13.5371 0.0360838 8.8186 2.00537 5.35455 5.47472C1.8905 8.94407 -0.0353868 13.6293 0.000492479 18.5C-0.0353868 23.3707 1.8905 28.0559 5.35455 31.5253C8.8186 34.9946 13.5371 36.9639 18.4722 37C22.5496 37.0022 26.5098 35.6544 29.7191 33.1723L26.1442 28.9164Z" fill="#262933"></path><path d="M27.4145 27.8379L30.9947 32.0956C32.8727 30.3497 34.3692 28.2434 35.3924 25.906C36.4155 23.5686 36.9438 21.0495 36.9447 18.5032C36.9457 15.957 36.4192 13.4375 35.3977 11.0994C34.3762 8.76129 32.8812 6.65394 31.0046 4.90674L27.4207 9.16174C28.6818 10.3779 29.6837 11.8307 30.3675 13.4346C31.0513 15.0385 31.4033 16.7612 31.4026 18.5013C31.4019 20.2414 31.0487 21.9639 30.3636 23.5673C29.6786 25.1707 28.6756 26.6227 27.4136 27.8379H27.4145Z" fill="#FBB03B"></path><path d="M54.0814 31.6372C52.6157 31.6768 51.1576 31.4154 49.7997 30.8695C48.4418 30.3235 47.2137 29.505 46.1933 28.4658C45.159 27.4289 44.3471 26.1968 43.8065 24.8431C43.2659 23.4894 43.0075 22.0419 43.0469 20.5874C43.0076 19.1329 43.266 17.6855 43.8066 16.3318C44.3473 14.9781 45.159 13.7459 46.1933 12.709C47.9416 11.0115 50.2064 9.9276 52.6396 9.62393C55.0728 9.32025 57.5396 9.81361 59.6611 11.0282C61.2673 11.9753 62.5523 13.3719 63.3529 15.0409L60.2904 16.8028C59.7613 15.6853 58.9067 14.7489 57.8357 14.1133C56.4163 13.2923 54.7614 12.9584 53.1294 13.1637C51.4975 13.369 49.9803 14.1019 48.8149 15.2479C48.117 15.9515 47.5697 16.7865 47.2056 17.7032C46.8416 18.62 46.6682 19.5996 46.6959 20.5839C46.6709 21.5616 46.8456 22.5343 47.2097 23.4439C47.5738 24.3535 48.1197 25.1815 48.8149 25.8784C49.4938 26.577 50.3127 27.1282 51.2195 27.4971C52.1262 27.866 53.1009 28.0444 54.0814 28.0209C55.4079 28.0398 56.7142 27.6982 57.8571 27.0333C58.9499 26.4021 59.8376 25.4764 60.4162 24.3649L63.5207 26.1718C62.6293 27.8208 61.2936 29.1949 59.6611 30.1422C57.9767 31.1393 56.0454 31.6567 54.0814 31.6372V31.6372Z" fill="#646F81"></path><path d="M67.2972 6.25497C66.9695 6.26245 66.6437 6.20282 66.3404 6.07986C66.0372 5.95689 65.763 5.77325 65.5352 5.54051C65.3042 5.31596 65.1218 5.04745 64.999 4.75125C64.8763 4.45505 64.8158 4.13734 64.8211 3.81737C64.8171 3.49456 64.8782 3.17419 65.0008 2.87489C65.1234 2.57559 65.305 2.30333 65.5352 2.07397C65.76 1.83592 66.0331 1.64735 66.3367 1.52059C66.6403 1.39384 66.9676 1.33174 67.2972 1.33837C67.6202 1.33471 67.9404 1.39833 68.2368 1.52508C68.5332 1.65184 68.7991 1.83887 69.0173 2.07397C69.2474 2.30339 69.429 2.57566 69.5516 2.87494C69.6742 3.17423 69.7353 3.49458 69.7314 3.81737C69.7367 4.13733 69.6761 4.45501 69.5533 4.75119C69.4306 5.04738 69.2482 5.3159 69.0173 5.54051C68.7961 5.77039 68.5291 5.95255 68.2331 6.07552C67.937 6.19848 67.6184 6.25958 67.2972 6.25497ZM65.4513 31.089V10.0818H69.1012V31.0917L65.4513 31.089Z" fill="#646F81"></path><path d="M76.6537 13.612C77.8564 11.0067 80.0379 9.7041 83.1984 9.7041V13.5274C81.5317 13.4052 79.8807 13.9164 78.5835 14.9563C77.2964 15.9929 76.6531 17.6597 76.6537 19.9566V31.0919H73.0029V10.082H76.6528L76.6537 13.612Z" fill="#646F81"></path><path d="M93.814 31.6382C92.3483 31.6779 90.8903 31.4165 89.5324 30.8705C88.1744 30.3246 86.9464 29.506 85.926 28.4667C84.8916 27.4299 84.0797 26.1978 83.5391 24.8441C82.9985 23.4904 82.7401 22.0429 82.7796 20.5884C82.7403 19.1338 82.9987 17.6864 83.5393 16.3327C84.08 14.9791 84.8917 13.7469 85.926 12.71C87.6743 11.0125 89.9391 9.92858 92.3723 9.62491C94.8054 9.32123 97.2723 9.81459 99.3938 11.0292C101 11.9763 102.285 13.373 103.086 15.0419L100.023 16.8038C99.4941 15.6863 98.6394 14.7499 97.5684 14.1143C96.1488 13.2935 94.4938 12.9599 92.8618 13.1655C91.2298 13.3711 89.7128 14.1043 88.5476 15.2507C87.8497 15.9543 87.3024 16.7893 86.9384 17.706C86.5743 18.6227 86.4009 19.6024 86.4286 20.5866C86.4036 21.5643 86.5784 22.537 86.9424 23.4466C87.3065 24.3562 87.8524 25.1842 88.5476 25.8811C89.2265 26.5797 90.0454 27.131 90.9522 27.4999C91.8589 27.8687 92.8336 28.0471 93.814 28.0236C95.1406 28.0425 96.4468 27.7009 97.5898 27.0361C98.6825 26.4048 99.5702 25.4791 100.149 24.3677L103.253 26.1745C102.362 27.8236 101.026 29.1976 99.3938 30.1449C97.7092 31.1414 95.7779 31.6582 93.814 31.6382Z" fill="#646F81"></path><path d="M105.183 31.0919V0.417969H108.833V31.0919H105.183Z" fill="#646F81"></path><path d="M115.294 22.2673C115.566 23.9927 116.488 25.5532 117.874 26.6377C119.319 27.7018 121.087 28.2494 122.888 28.1908C125.657 28.1908 127.671 27.1683 128.93 25.1234L132.035 26.8853C129.993 30.0508 126.916 31.6336 122.804 31.6336C121.314 31.6981 119.827 31.4568 118.436 30.9249C117.045 30.3929 115.781 29.582 114.724 28.5433C113.667 27.5046 112.84 26.2608 112.295 24.8904C111.75 23.5201 111.499 22.053 111.557 20.582C111.512 19.1308 111.76 17.6851 112.285 16.329C112.811 14.9729 113.605 13.7334 114.62 12.6825C115.644 11.6376 116.879 10.8169 118.245 10.274C119.611 9.73111 121.078 9.47808 122.55 9.53138C123.972 9.48949 125.385 9.76023 126.687 10.324C127.99 10.8877 129.149 11.7304 130.081 12.7909C132.02 14.9478 133.062 17.7484 132.997 20.6314C132.996 21.1799 132.954 21.7275 132.871 22.2699L115.294 22.2673ZM122.556 12.9812C120.781 12.9179 119.046 13.5096 117.69 14.6409C116.38 15.7882 115.532 17.3612 115.298 19.0739H129.312C129.131 17.3244 128.293 15.7053 126.963 14.5352C125.732 13.509 124.167 12.957 122.556 12.9812V12.9812Z" fill="#646F81"></path></svg>