<svg xmlns="http://www.w3.org/2000/svg" width="150" height="49" viewBox="0 0 150 49" fill="none"><path d="M8.545 1.771H21.4751L27.9347 12.6919L21.4742 23.6145H8.5441L2.08447 12.6927L8.545 1.771Z" fill="#FBB03B"></path><path d="M21.4751 47.231H8.5441L2.08447 36.3075L8.545 25.3857H21.4751L22.282 26.749L27.9356 36.3075L21.4751 47.231Z" fill="#FBB03B"></path><path d="M29.4953 35.4181L28.6884 34.0549L23.0356 24.4999L29.4953 13.5781H42.4254L48.8832 24.4999L42.4254 35.4181H29.4953Z" fill="#FBB03B"></path><path d="M50.9704 24.5L43.4617 11.8073H29.4953L22.5125 0H7.50777L0 12.6928L6.9837 24.5L0 36.3072L7.50777 49H22.5125L29.4962 37.1927H43.4617L50.9704 24.5ZM8.54507 1.771H21.4752L27.9348 12.6919L21.4752 23.6145H8.54507L2.08454 12.6928L8.54507 1.771ZM21.4752 47.2307H8.54507L2.08454 36.3072L8.54507 25.3855H21.4752L22.2821 26.7487L27.9357 36.3072L21.4752 47.2307ZM29.4953 35.4182L28.6884 34.055L23.0356 24.5L29.4953 13.5782H42.4253L48.8832 24.5L42.4253 35.4182H29.4953Z" fill="#262933"></path><path d="M63.4786 39.5266H59.3493C59.2093 39.546 59.0666 39.5332 58.9327 39.4894C58.7987 39.4456 58.6772 39.372 58.578 39.2745C58.4788 39.1769 58.4046 39.0582 58.3614 38.9279C58.3181 38.7975 58.3071 38.6591 58.3292 38.5239V6.97051C58.3071 6.83527 58.3181 6.6969 58.3614 6.56653C58.4046 6.43617 58.4788 6.31744 58.578 6.21991C58.6772 6.12237 58.7987 6.04874 58.9327 6.00495C59.0666 5.96116 59.2093 5.94842 59.3493 5.96776H63.4786C63.6186 5.94842 63.7613 5.96116 63.8953 6.00495C64.0292 6.04874 64.1507 6.12237 64.2499 6.21991C64.3492 6.31744 64.4234 6.43617 64.4666 6.56653C64.5098 6.6969 64.5208 6.83527 64.4988 6.97051V17.7593H64.6957C65.4078 16.0408 66.9947 15.1815 69.4567 15.1815H71.0108C76.0949 15.1815 78.6372 17.7753 78.6378 22.9629V38.5239C78.6559 38.6626 78.6403 38.8035 78.5925 38.9353C78.5446 39.0672 78.4657 39.1865 78.362 39.2838C78.2583 39.3811 78.1327 39.4536 77.995 39.4958C77.8574 39.5379 77.7115 39.5485 77.5689 39.5266H73.4857C73.3458 39.5458 73.2032 39.533 73.0693 39.4891C72.9355 39.4452 72.8141 39.3716 72.715 39.2741C72.6159 39.1766 72.5418 39.0579 72.4986 38.9276C72.4554 38.7973 72.4444 38.659 72.4664 38.5239V23.2481C72.5453 22.4694 72.3102 21.6912 71.8105 21.0764C71.1907 20.5871 70.3961 20.3552 69.6003 20.4315H67.8501C65.6159 20.4315 64.4985 21.6408 64.4979 24.0593V38.523C64.52 38.6582 64.5091 38.7966 64.466 38.927C64.4229 39.0574 64.3489 39.1762 64.2497 39.2738C64.1506 39.3715 64.0292 39.4452 63.8952 39.4891C63.7613 39.533 63.6186 39.5459 63.4786 39.5266Z" fill="#646F81"></path><path d="M102 39.5261H91.2607C90.185 39.5921 89.1064 39.4484 88.089 39.1035C87.0717 38.7586 86.1361 38.2194 85.3378 37.5179C83.9445 36.1815 83.2482 34.2565 83.2488 31.7429V22.9614C83.2488 20.4478 83.9451 18.5228 85.3378 17.1864C86.1363 16.4853 87.0719 15.9465 88.0893 15.6019C89.1067 15.2572 90.1851 15.1138 91.2607 15.1801H95.0982C96.1743 15.1132 97.2533 15.2562 98.2713 15.6006C99.2893 15.9449 100.226 16.4836 101.025 17.1847C102.417 18.5211 103.113 20.4461 103.114 22.9597V29.0226C103.136 29.1578 103.125 29.2962 103.082 29.4265C103.038 29.5569 102.964 29.6756 102.865 29.7732C102.766 29.8707 102.644 29.9443 102.51 29.9881C102.376 30.0319 102.234 30.0446 102.094 30.0253H89.9054C89.5168 30.0253 89.3226 30.2003 89.3226 30.5503V31.6003C89.2479 32.3641 89.4831 33.1261 89.9786 33.7248C90.5985 34.2138 91.3931 34.4453 92.1887 34.3688H102.001C102.682 34.3688 103.022 34.7188 103.022 35.4188V38.5688C103.049 38.8333 102.971 39.098 102.803 39.3082C102.574 39.4784 102.286 39.5564 102 39.5261V39.5261ZM89.9054 25.9679H96.5123C96.5855 25.9776 96.66 25.9706 96.7299 25.9475C96.7998 25.9244 96.8632 25.8858 96.915 25.8349C96.9668 25.7839 97.0057 25.722 97.0285 25.6539C97.0513 25.5859 97.0574 25.5136 97.0463 25.4429V23.1522C97.1267 22.3842 96.9003 21.6155 96.4138 21.0041C95.7971 20.5282 95.0124 20.3055 94.2281 20.3837H92.1878C91.4034 20.3053 90.6186 20.5281 90.0021 21.0041C89.5152 21.6154 89.2888 22.3841 89.3696 23.1522V25.4429C89.3584 25.5138 89.3646 25.5862 89.3874 25.6544C89.4103 25.7226 89.4494 25.7847 89.5014 25.8357C89.5534 25.8867 89.6171 25.9252 89.6872 25.9481C89.7573 25.9711 89.8321 25.9779 89.9054 25.9679V25.9679Z" fill="#646F81"></path><path d="M111.715 39.5263H106.808C105.965 39.5263 105.738 39.1921 106.128 38.5236L112.249 27.1145L106.128 16.1831C105.804 15.5152 105.998 15.1812 106.711 15.1812H111.666C111.998 15.1515 112.331 15.2354 112.606 15.4184C112.881 15.6014 113.081 15.872 113.172 16.1831L116.233 23.4395H116.427L119.099 16.1831C119.189 15.8719 119.389 15.6013 119.665 15.4182C119.94 15.2352 120.272 15.1513 120.605 15.1812H125.463C126.306 15.1812 126.517 15.5152 126.095 16.1831L120.265 27.1145L126.531 38.5236C126.608 38.626 126.655 38.7462 126.668 38.872C126.68 38.9978 126.658 39.1245 126.604 39.2393C126.532 39.3408 126.433 39.4211 126.317 39.4716C126.201 39.522 126.074 39.5407 125.948 39.5255H120.945C120.623 39.5321 120.307 39.4381 120.045 39.2575C119.782 39.0769 119.587 38.8193 119.487 38.5227L116.427 31.2182H116.233L113.172 38.5218C113.089 38.828 112.898 39.0961 112.631 39.2797C112.365 39.4632 112.041 39.5505 111.715 39.5263Z" fill="#646F81"></path><path d="M138.869 39.5263H137.704C136.628 39.593 135.548 39.4496 134.53 39.1046C133.512 38.7597 132.576 38.2202 131.777 37.5182C130.383 36.1818 129.687 34.2568 129.688 31.7432V22.9617C129.688 20.4481 130.384 18.5231 131.777 17.1867C132.576 16.4855 133.512 15.9467 134.53 15.6024C135.548 15.258 136.627 15.1151 137.703 15.1821H148.925C149.067 15.1604 149.213 15.1711 149.35 15.2132C149.487 15.2553 149.613 15.3278 149.716 15.4248C149.82 15.5219 149.899 15.6409 149.947 15.7724C149.995 15.904 150.01 16.0446 149.993 16.1831V38.5236C150.011 38.6623 149.995 38.8031 149.947 38.935C149.9 39.0669 149.821 39.1862 149.717 39.2835C149.613 39.3808 149.488 39.4533 149.35 39.4955C149.212 39.5376 149.066 39.5482 148.924 39.5263H144.842C144.703 39.5445 144.56 39.531 144.427 39.4868C144.294 39.4426 144.173 39.369 144.074 39.2717C143.975 39.1744 143.901 39.0562 143.857 38.9263C143.813 38.7965 143.801 38.6586 143.822 38.5236V36.9486H143.628C143.274 37.8046 142.595 38.4967 141.731 38.8823C140.841 39.3075 139.861 39.5279 138.869 39.5263ZM143.824 30.6477V20.9571C143.824 20.6071 143.63 20.4321 143.241 20.4321H138.676C138.285 20.3926 137.891 20.4293 137.515 20.5401C137.14 20.6508 136.791 20.8334 136.49 21.0769C136.006 21.6988 135.78 22.4737 135.857 23.2487V31.4588C135.78 32.2339 136.006 33.0088 136.49 33.6306C136.791 33.8739 137.14 34.0563 137.515 34.1669C137.891 34.2775 138.285 34.3141 138.676 34.2746H140.473C142.707 34.2752 143.824 33.0662 143.823 30.6477H143.824Z" fill="#646F81"></path></svg>