<svg xmlns="http://www.w3.org/2000/svg" width="151" height="54" viewBox="0 0 151 54" fill="none"><path d="M9.20967 40.3996C12.2443 45.8255 19.5421 45.9505 22.5689 40.5211C23.542 38.7533 24.0766 36.8167 24.1356 34.8451L24.2336 32.0743C24.2336 32.0743 19.633 36.5915 17.7343 36.3144C17.0932 36.2206 17.5801 34.9424 17.8133 34.3094C18.6939 31.9116 24.0416 26.0565 24.0416 26.0565C24.0416 26.0565 24.4668 17.7504 25.2217 15.4705C25.6122 14.2918 26.0668 13.7533 26.481 13.5387C26.8952 13.7518 27.3505 14.2918 27.7402 15.4705C28.4951 17.7483 28.9204 26.0565 28.9204 26.0565C28.9204 26.0565 34.2681 31.9087 35.1471 34.303C35.3795 34.9368 35.8672 36.2149 35.2261 36.308C33.329 36.5851 28.7268 32.0679 28.7268 32.0679L28.8248 34.8387C28.8855 36.9181 29.4773 38.9571 30.5544 40.7982C33.5946 45.9136 40.6544 45.7857 43.6242 40.6198C45.5898 37.1485 46.6166 33.3093 46.621 29.4142C46.7032 17.658 37.8956 7.86841 26.9648 7.59062C15.6205 7.30358 6.34021 17.1124 6.34021 29.2537C6.31815 33.1191 7.30073 36.9358 9.20967 40.3996V40.3996Z" fill="#FBB03B"></path><path d="M59.9644 15.0329C59.9644 26.1781 51.1726 35.2104 40.3272 35.2104C29.4817 35.2104 20.6899 26.176 20.6899 15.0329C20.6899 3.88985 25.9569 0 36.8024 0C47.6479 0 59.9644 3.88985 59.9644 15.0329Z" fill="url(#paint0_linear_170_44)"></path><path d="M29.2502 48.0813C29.2502 60.5728 0.0465148 51.228 0.0465148 38.7364C0.0465148 26.2449 -1.2317 25.4619 9.61297 25.4619C20.4576 25.4619 29.2502 35.5876 29.2502 48.0813Z" fill="url(#paint1_linear_170_44)"></path><path d="M62.3692 26.7485H58.1962V35.0184C58.1444 35.5579 58.3155 36.0956 58.6768 36.5289C59.0473 36.8678 59.5521 37.0609 60.0807 37.066C60.8445 37.1051 61.6103 37.0985 62.3731 37.0461V41.6983C59.0963 42.0957 56.7865 41.7641 55.4437 40.7036C54.1009 39.6431 53.4296 37.7485 53.4296 35.0198V26.7485H50.2123V21.8185H53.4272V17.8022L58.1962 16.252V21.8185H62.3715L62.3692 26.7485Z" fill="#646F81"></path><path d="M71.5348 25.2382C71.8601 24.1283 72.5905 23.1488 73.6091 22.4566C74.6276 21.7644 75.8753 21.3996 77.152 21.4208V27.1458C76.464 27.0466 75.7604 27.0804 75.0882 27.245C74.4159 27.4095 73.7904 27.701 73.2533 28.1C72.1077 28.9217 71.5351 30.2868 71.5356 32.1951V41.6984H66.7666V21.8187H71.534L71.5348 25.2382Z" fill="#646F81"></path><path d="M83.9873 33.866C84.6276 36.3574 86.3645 37.6031 89.1982 37.6031C90.0234 37.6367 90.8433 37.4696 91.5718 37.1195C92.3002 36.7694 92.9101 36.2492 93.3372 35.6137L97.1805 37.9995C96.4206 39.3193 95.2611 40.4191 93.8358 41.172C92.4104 41.925 90.7772 42.3005 89.1247 42.2552C87.7266 42.2989 86.3361 42.0525 85.0611 41.535C83.7862 41.0175 82.6611 40.2429 81.7731 39.2713C79.8734 37.1477 78.8894 34.4796 79.0017 31.7566C78.8957 29.046 79.8647 26.3897 81.736 24.2618C82.5656 23.3046 83.6325 22.5349 84.8515 22.0137C86.0706 21.4926 87.4082 21.2345 88.7579 21.26C90.063 21.2464 91.3529 21.5136 92.5197 22.0394C93.6865 22.5652 94.6965 23.3343 95.4651 24.2824C97.274 26.4275 98.2068 29.0665 98.1069 31.7566C98.1032 32.4623 98.0416 33.1669 97.9228 33.8645L83.9873 33.866ZM83.9138 29.8873H93.3372C93.1808 28.7361 92.5869 27.6687 91.6558 26.8657C90.86 26.2215 89.8257 25.8669 88.7547 25.871C87.5825 25.8342 86.4411 26.2125 85.5762 26.9246C84.6809 27.726 84.0978 28.7659 83.9138 29.8894V29.8873Z" fill="#646F81"></path><path d="M113.589 21.8188H118.836L111.815 41.6986H106.382L99.3608 21.8188H104.609L109.081 35.7349L113.589 21.8188Z" fill="#646F81"></path><path d="M135.17 21.8184H139.937V41.6982H135.17V39.3536C134.538 40.2706 133.649 41.0217 132.591 41.5314C131.534 42.041 130.346 42.2912 129.146 42.2566C126.683 42.2566 124.57 41.2426 122.808 39.2144C121.007 37.073 120.076 34.4414 120.17 31.758C120.077 29.0746 121.01 26.4436 122.812 24.303C124.573 22.2753 126.686 21.2614 129.15 21.2614C130.35 21.227 131.538 21.4773 132.595 21.9869C133.653 22.4965 134.542 23.2476 135.174 24.1644L135.17 21.8184ZM126.376 35.7942C126.808 36.2929 127.364 36.6943 127.999 36.9668C128.634 37.2393 129.331 37.3754 130.034 37.3643C130.74 37.3743 131.439 37.2378 132.077 36.9655C132.714 36.6931 133.273 36.2923 133.711 35.7942C134.721 34.6499 135.238 33.2172 135.17 31.758C135.238 30.299 134.72 28.8666 133.711 27.7225C133.273 27.2244 132.714 26.8236 132.077 26.5513C131.439 26.2789 130.74 26.1424 130.034 26.1523C129.331 26.1413 128.634 26.2774 127.999 26.5499C127.364 26.8224 126.808 27.2238 126.376 27.7225C125.377 28.8709 124.866 30.3015 124.934 31.758C124.865 33.2146 125.377 34.6456 126.376 35.7942V35.7942Z" fill="#646F81"></path><path d="M147.814 42.2555C149.573 42.2555 151 40.7207 151 38.8275C151 36.9342 149.573 35.3994 147.814 35.3994C146.054 35.3994 144.627 36.9342 144.627 38.8275C144.627 40.7207 146.054 42.2555 147.814 42.2555Z" fill="#646F81"></path><defs><linearGradient id="paint0_linear_170_44" x1="51.8739" y1="31.2316" x2="31.9085" y2="-0.781254" gradientUnits="userSpaceOnUse"><stop stop-color="#01DDA5"></stop><stop offset="1" stop-color="#3CADE2"></stop></linearGradient><linearGradient id="paint1_linear_170_44" x1="25.1552" y1="54.1859" x2="4.11154" y2="25.6945" gradientUnits="userSpaceOnUse"><stop stop-color="#FF8A11"></stop><stop offset="1" stop-color="#E81894"></stop></linearGradient></defs></svg>